<svg width="23" height="23" viewBox="0 0 23 23" fill="none" xmlns="http://www.w3.org/2000/svg">
<path fill-rule="evenodd" clip-rule="evenodd" d="M0.642987 22.0224C-0.966709 20.0652 0.74503 17.7337 2.49701 16.7407C3.47002 16.1924 4.6816 15.811 5.98948 15.4512C5.60028 16.1937 5.17087 16.9144 4.70316 17.61C4.31837 17.7646 3.9435 17.9429 3.58068 18.1439C2.65798 18.6649 1.42484 19.5759 2.18226 20.72C2.91956 21.8339 4.10815 20.6092 4.66867 19.963C5.38441 19.2319 6.19213 18.0777 6.91074 16.8112C7.67104 15.4728 8.36234 13.9617 9.02347 12.3642C9.61992 10.9251 10.1503 9.44275 10.5469 8.06116C10.9494 6.67957 11.221 5.40016 11.3216 4.32079C11.4035 3.4242 11.3647 2.10449 10.1862 2.27719C9.00766 2.44989 9.02203 3.83148 9.30229 4.91085C9.38469 5.23226 9.48817 5.56566 9.61273 5.91106C9.52458 6.32458 9.41775 6.76112 9.29223 7.22069C9.18683 7.60063 9.07186 7.98968 8.9473 8.38785C8.44014 7.39671 8.03885 6.35475 7.75008 5.27927C7.24705 3.33641 7.2255 0.630796 9.83407 0.0695248C12.4426 -0.491746 13.0966 2.47292 12.9241 4.3726C12.7804 5.9125 12.3535 7.7978 11.7068 9.74066C12.1207 10.4271 12.572 11.1151 13.0506 11.7843C13.5536 12.4909 14.2147 13.2133 14.7609 13.8423C16.6868 13.6983 18.5839 13.7933 20.0068 14.0624C21.9614 14.4323 23.7292 15.6599 22.6944 18.0057C21.6581 20.3516 19.1013 20.0062 17.4054 18.9138C15.9909 17.9983 14.75 16.8386 13.7405 15.4887H13.7361C12.6642 13.8789 11.6806 12.2118 10.7898 10.4948C10.3644 11.7799 9.74065 13.5026 9.20887 14.6539C9.88868 14.4956 10.603 14.3661 11.3072 14.2582C11.5961 14.7446 11.8721 15.2195 12.1552 15.6801C11.93 15.7136 11.6953 15.7511 11.4509 15.7923C10.5666 15.9429 9.69945 16.1233 8.84956 16.3334C8.63494 16.746 8.42702 17.1528 8.22581 17.5538C7.50863 18.9757 6.8475 20.2882 6.02685 21.2237C4.71466 22.7204 2.26131 23.9437 0.65161 21.9864L0.642987 22.0224ZM15.7339 15.2872C16.5948 16.1679 17.4011 16.8415 18.1916 17.3596C19.1516 17.9784 20.2612 18.3396 20.7786 17.2588C21.306 16.1751 20.3316 15.6326 19.3126 15.4311C18.308 15.2397 17.1136 15.231 15.7195 15.2814L15.7339 15.2872Z" fill="black"/>
</svg>
