<svg width="31" height="22" viewBox="0 0 31 22" fill="none" xmlns="http://www.w3.org/2000/svg">
<path d="M12.4 15.5L20.4445 10.85L12.4 6.2V15.5ZM30.318 3.3635C30.5195 4.092 30.659 5.0685 30.752 6.3085C30.8605 7.5485 30.907 8.618 30.907 9.548L31 10.85C31 14.2445 30.752 16.74 30.318 18.3365C29.9305 19.7315 29.0315 20.6305 27.6365 21.018C26.908 21.2195 25.575 21.359 23.529 21.452C21.514 21.5605 19.6695 21.607 17.9645 21.607L15.5 21.7C9.0055 21.7 4.96 21.452 3.3635 21.018C1.9685 20.6305 1.0695 19.7315 0.682 18.3365C0.4805 17.608 0.341 16.6315 0.248 15.3915C0.1395 14.1515 0.0929999 13.082 0.0929999 12.152L0 10.85C0 7.4555 0.248 4.96 0.682 3.3635C1.0695 1.9685 1.9685 1.0695 3.3635 0.682C4.092 0.4805 5.425 0.341 7.471 0.248C9.486 0.1395 11.3305 0.0929999 13.0355 0.0929999L15.5 0C21.9945 0 26.04 0.248 27.6365 0.682C29.0315 1.0695 29.9305 1.9685 30.318 3.3635Z" fill="black"/>
</svg>
